<svg width="22" height="17" viewBox="0 0 22 17" fill="none" xmlns="http://www.w3.org/2000/svg">
<g filter="url(#filter0_d_2_1064)">
<path d="M16.5 9.4375H19.9375M16.5 9.4375C16.5 9.77744 16.3992 10.1097 16.2103 10.3924C16.0215 10.675 15.753 10.8953 15.439 11.0254C15.1249 11.1555 14.7793 11.1895 14.4459 11.1232C14.1125 11.0569 13.8063 10.8932 13.5659 10.6528C13.3255 10.4125 13.1618 10.1062 13.0955 9.77281C13.0292 9.43941 13.0632 9.09382 13.1933 8.77976C13.3234 8.4657 13.5437 8.19727 13.8264 8.00841C14.109 7.81955 14.4413 7.71875 14.7812 7.71875C15.007 7.71875 15.2305 7.76321 15.439 7.84958C15.6475 7.93596 15.837 8.06256 15.9966 8.22216C16.1562 8.38176 16.2828 8.57123 16.3692 8.77976C16.4555 8.98829 16.5 9.21179 16.5 9.4375ZM2.40625 9.4375H13.0625M5.5 2.5625H2.0625M5.5 2.5625C5.5 2.22256 5.6008 1.89026 5.78966 1.60761C5.97852 1.32497 6.24695 1.10467 6.56101 0.974583C6.87507 0.844495 7.22066 0.810458 7.55406 0.876776C7.88747 0.943094 8.19372 1.10679 8.43409 1.34716C8.67446 1.58753 8.83816 1.89378 8.90447 2.22719C8.97079 2.56059 8.93676 2.90618 8.80667 3.22024C8.67658 3.5343 8.45628 3.80273 8.17364 3.99159C7.89099 4.18045 7.55869 4.28125 7.21875 4.28125C6.76291 4.28125 6.32574 4.10017 6.00341 3.77784C5.68108 3.45551 5.5 3.01834 5.5 2.5625ZM19.5938 2.5625H8.9375" stroke="white" stroke-width="0.625" shape-rendering="crispEdges"/>
</g>
<defs>
<filter id="filter0_d_2_1064" x="-1.9375" y="0.53125" width="25.875" height="18.9375" filterUnits="userSpaceOnUse" color-interpolation-filters="sRGB">
<feFlood flood-opacity="0" result="BackgroundImageFix"/>
<feColorMatrix in="SourceAlpha" type="matrix" values="0 0 0 0 0 0 0 0 0 0 0 0 0 0 0 0 0 0 127 0" result="hardAlpha"/>
<feOffset dy="4"/>
<feGaussianBlur stdDeviation="2"/>
<feComposite in2="hardAlpha" operator="out"/>
<feColorMatrix type="matrix" values="0 0 0 0 0 0 0 0 0 0 0 0 0 0 0 0 0 0 0.25 0"/>
<feBlend mode="normal" in2="BackgroundImageFix" result="effect1_dropShadow_2_1064"/>
<feBlend mode="normal" in="SourceGraphic" in2="effect1_dropShadow_2_1064" result="shape"/>
</filter>
</defs>
</svg>
