<svg width="20" height="22" viewBox="0 0 20 22" fill="none" xmlns="http://www.w3.org/2000/svg">
<path d="M10 22C10.7293 22 11.4288 21.7102 11.9445 21.1945C12.4603 20.6788 12.75 19.9793 12.75 19.25H7.25C7.25 19.9793 7.53973 20.6788 8.05546 21.1945C8.57118 21.7102 9.27065 22 10 22ZM10 2.63723L8.90413 2.85861C7.66107 3.11188 6.5437 3.78687 5.74115 4.76934C4.93859 5.7518 4.50014 6.98139 4.5 8.24998C4.5 9.11348 4.31575 11.2709 3.86887 13.3952C3.64887 14.4499 3.35188 15.5485 2.95725 16.5H17.0427C16.6481 15.5485 16.3525 14.4512 16.1311 13.3952C15.6842 11.2709 15.5 9.11348 15.5 8.24998C15.4995 6.98162 15.061 5.75236 14.2584 4.77018C13.4559 3.788 12.3387 3.11321 11.0959 2.85998L10 2.63723ZM18.5525 16.5C18.8591 17.1146 19.2139 17.6014 19.625 17.875H0.375C0.786125 17.6014 1.14087 17.1146 1.4475 16.5C2.685 14.025 3.125 9.45998 3.125 8.24998C3.125 4.92248 5.49 2.14498 8.63188 1.51111C8.61268 1.31992 8.63378 1.12683 8.6938 0.944295C8.75381 0.76176 8.85142 0.593831 8.98033 0.451337C9.10924 0.308844 9.26658 0.19495 9.44221 0.117001C9.61784 0.0390523 9.80785 -0.0012207 10 -0.0012207C10.1921 -0.0012207 10.3822 0.0390523 10.5578 0.117001C10.7334 0.19495 10.8908 0.308844 11.0197 0.451337C11.1486 0.593831 11.2462 0.76176 11.3062 0.944295C11.3662 1.12683 11.3873 1.31992 11.3681 1.51111C12.9223 1.82722 14.3194 2.67073 15.3229 3.8988C16.3265 5.12686 16.8748 6.66402 16.875 8.24998C16.875 9.45998 17.315 14.025 18.5525 16.5Z" fill="white"/>
</svg>
